<mxfile host="app.diagrams.net" modified="2024-03-09T19:03:15.070Z" agent="Mozilla/5.0 (Windows NT 10.0; Win64; x64; rv:123.0) Gecko/20100101 Firefox/123.0" version="21.5.0" etag="eetyZwaMGY-aIQanMs8i" type="github">
  <diagram name="Page-1" id="FhG78EAFZ0hF4GGVFW7m">
    <mxGraphModel>
      <root>
        <mxCell id="0" />
        <mxCell id="1" parent="0" />
      </root>
    </mxGraphModel>
  </diagram>
</mxfile>
